<svg width="830" height="830" viewBox="0 0 830 830" fill="none" xmlns="http://www.w3.org/2000/svg">
<path d="M318.37 454.6V478H221V352H316.035V375.4H249.924V402.76H308.31V425.44H249.924V454.6H318.37Z" fill="#3E87E1"/>
<path d="M452.756 478L452.576 404.4L415.568 466.68H402.454L365.626 406.02V478H338.319V352H362.392L409.46 432.3L455.81 352H479.704L480.063 478H452.756Z" fill="#3E87E1"/>
<path d="M554.125 352C565.263 352 574.904 353.86 583.048 357.58C591.312 361.3 597.66 366.58 602.091 373.42C606.523 380.26 608.738 388.36 608.738 397.72C608.738 406.96 606.523 415.06 602.091 422.02C597.66 428.86 591.312 434.14 583.048 437.86C574.904 441.46 565.263 443.26 554.125 443.26H528.794V478H499.691V352H554.125ZM552.508 419.5C561.251 419.5 567.898 417.64 572.449 413.92C577 410.08 579.276 404.68 579.276 397.72C579.276 390.64 577 385.24 572.449 381.52C567.898 377.68 561.251 375.76 552.508 375.76H528.794V419.5H552.508Z" fill="#3E87E1"/>
<path d="M432.523 60.4327C343.988 56.0574 257.02 84.9623 188.719 141.464L246.128 210.862C297.101 168.695 362.004 147.123 428.077 150.389L432.523 60.4327Z" fill="#53D589"/>
<path d="M666.023 163.977C603.343 101.298 519.482 64.335 430.929 60.3576L426.888 150.332C492.974 153.301 555.56 180.886 602.337 227.663L666.023 163.977Z" fill="#FB8C00"/>
<path d="M769.488 395.939C764.729 307.425 727.027 223.893 663.796 161.77L600.675 226.016C647.864 272.378 676 334.717 679.552 400.775L769.488 395.939Z" fill="#009BFF"/>
<path d="M688.966 640.76C745.338 572.352 774.077 485.329 769.533 396.803L679.586 401.42C682.977 467.486 661.529 532.431 619.459 583.483L688.966 640.76Z" fill="#EB5757"/>
<path d="M468.005 766.021C555.653 752.786 635.18 707.239 690.946 638.336L620.937 581.674C579.319 633.096 519.969 667.087 454.557 676.965L468.005 766.021Z" fill="#D96CFF"/>
<path d="M468.005 766.021C391.265 777.609 312.841 763.729 244.739 726.507C176.638 689.284 122.61 630.77 90.9276 559.921C59.2449 489.072 51.6527 409.793 69.3132 334.218C86.9738 258.644 128.914 190.94 188.713 141.469L246.124 210.865C201.496 247.785 170.196 298.313 157.016 354.713C143.836 411.114 149.502 470.28 173.147 523.154C196.791 576.028 237.112 619.697 287.936 647.475C338.759 675.254 397.286 685.613 454.557 676.965L468.005 766.021Z" fill="#EBEBEB"/>
</svg>
