<svg width="178" height="96" viewBox="0 0 178 96" fill="none" xmlns="http://www.w3.org/2000/svg">
<path d="M54.4572 76.8613V85.3473H19.1458V39.6533H53.6102V48.1393H29.635V58.0615H50.8088V66.2864H29.635V76.8613H54.4572Z" fill="#3E87E1"/>
<path d="M103.192 85.3473L103.127 58.6562L89.7061 81.2421H84.9502L71.5944 59.2437V85.3473H61.6915V39.6533H70.4217L87.491 68.7742L104.3 39.6533H112.965L113.095 85.3473H103.192Z" fill="#3E87E1"/>
<path d="M139.954 39.6533C143.993 39.6533 147.489 40.3279 150.443 41.6769C153.44 43.026 155.742 44.9408 157.349 47.4213C158.956 49.9018 159.759 52.8393 159.759 56.2337C159.759 59.5846 158.956 62.5221 157.349 65.0461C155.742 67.5267 153.44 69.4415 150.443 70.7905C147.489 72.0961 143.993 72.7488 139.954 72.7488H130.767V85.3473H120.213V39.6533H139.954ZM139.367 64.1323C142.538 64.1323 144.948 63.4577 146.599 62.1087C148.249 60.7161 149.075 58.7578 149.075 56.2337C149.075 53.6661 148.249 51.7078 146.599 50.3588C144.948 48.9662 142.538 48.2699 139.367 48.2699H130.767V64.1323H139.367Z" fill="#3E87E1"/>
<circle cx="27" cy="19" r="8" fill="#53D589"/>
<circle cx="58.2" cy="19" r="8" fill="#FB8C00"/>
<circle cx="89.4" cy="19" r="8" fill="#009BFF"/>
<circle cx="120.6" cy="19" r="8" fill="#EB5757"/>
<circle cx="151.8" cy="19" r="8" fill="#D96CFF"/>
</svg>
